# xmcd
#
# Track frame offsets: 
#        150
#        13081
#        33111
#        48822
#        65849
#        82102
#        104345
#        118050
#        134057
#        147503
#        164145
#
# Disc length: 2388 seconds
#
# Revision: 0
# Processed by: cddbd v1.5.2PL0 Copyright (c) Steve Scherf et al.
# Submitted via: ExactAudioCopyFreeDBPlugin 1.0
#
DISCID=a509520b
DTITLE=Roscoe Chenier - Roscoe Rocks
DYEAR=2000
DGENRE=Blues
TTITLE0=Hide And Seek
TTITLE1=Blindside
TTITLE2=Don't Miss Your Water
TTITLE3=Antifreeze
TTITLE4=Barefootin'
TTITLE5=Down In Tin Pan Alley
TTITLE6=Something You Got
TTITLE7=Women I Can't Stand
TTITLE8=C.C. Rider
TTITLE9=Morning Train
TTITLE10=Welfare Women Blues
EXTD=
EXTT0=
EXTT1=
EXTT2=
EXTT3=
EXTT4=
EXTT5=
EXTT6=
EXTT7=
EXTT8=
EXTT9=
EXTT10=
PLAYORDER=
